<svg width="167" height="168" viewBox="0 0 167 168" fill="none" xmlns="http://www.w3.org/2000/svg">
<path d="M0.245117 0.964233H6.90549V7.62461H0.245117V0.964233ZM6.90549 0.964233H13.5659V7.62461H6.90549V0.964233ZM13.5659 0.964233H20.2262V7.62461H13.5659V0.964233ZM20.2262 0.964233H26.8866V7.62461H20.2262V0.964233ZM26.8866 0.964233H33.547V7.62461H26.8866V0.964233ZM33.547 0.964233H40.2074V7.62461H33.547V0.964233ZM40.2074 0.964233H46.8678V7.62461H40.2074V0.964233ZM60.1885 0.964233H66.8489V7.62461H60.1885V0.964233ZM86.83 0.964233H93.4904V7.62461H86.83V0.964233ZM120.132 0.964233H126.792V7.62461H120.132V0.964233ZM126.792 0.964233H133.453V7.62461H126.792V0.964233ZM133.453 0.964233H140.113V7.62461H133.453V0.964233ZM140.113 0.964233H146.773V7.62461H140.113V0.964233ZM146.773 0.964233H153.434V7.62461H146.773V0.964233ZM153.434 0.964233H160.094V7.62461H153.434V0.964233ZM160.094 0.964233H166.755V7.62461H160.094V0.964233ZM0.245117 7.62461H6.90549V14.285H0.245117V7.62461ZM40.2074 7.62461H46.8678V14.285H40.2074V7.62461ZM53.5281 7.62461H60.1885V14.285H53.5281V7.62461ZM60.1885 7.62461H66.8489V14.285H60.1885V7.62461ZM73.5093 7.62461H80.1696V14.285H73.5093V7.62461ZM80.1696 7.62461H86.83V14.285H80.1696V7.62461ZM86.83 7.62461H93.4904V14.285H86.83V7.62461ZM93.4904 7.62461H100.151V14.285H93.4904V7.62461ZM100.151 7.62461H106.811V14.285H100.151V7.62461ZM120.132 7.62461H126.792V14.285H120.132V7.62461ZM160.094 7.62461H166.755V14.285H160.094V7.62461ZM0.245117 14.285H6.90549V20.9454H0.245117V14.285ZM13.5659 14.285H20.2262V20.9454H13.5659V14.285ZM20.2262 14.285H26.8866V20.9454H20.2262V14.285ZM26.8866 14.285H33.547V20.9454H26.8866V14.285ZM40.2074 14.285H46.8678V20.9454H40.2074V14.285ZM60.1885 14.285H66.8489V20.9454H60.1885V14.285ZM66.8489 14.285H73.5093V20.9454H66.8489V14.285ZM73.5093 14.285H80.1696V20.9454H73.5093V14.285ZM93.4904 14.285H100.151V20.9454H93.4904V14.285ZM120.132 14.285H126.792V20.9454H120.132V14.285ZM133.453 14.285H140.113V20.9454H133.453V14.285ZM140.113 14.285H146.773V20.9454H140.113V14.285ZM146.773 14.285H153.434V20.9454H146.773V14.285ZM160.094 14.285H166.755V20.9454H160.094V14.285ZM0.245117 20.9454H6.90549V27.6057H0.245117V20.9454ZM13.5659 20.9454H20.2262V27.6057H13.5659V20.9454ZM20.2262 20.9454H26.8866V27.6057H20.2262V20.9454ZM26.8866 20.9454H33.547V27.6057H26.8866V20.9454ZM40.2074 20.9454H46.8678V27.6057H40.2074V20.9454ZM53.5281 20.9454H60.1885V27.6057H53.5281V20.9454ZM60.1885 20.9454H66.8489V27.6057H60.1885V20.9454ZM73.5093 20.9454H80.1696V27.6057H73.5093V20.9454ZM86.83 20.9454H93.4904V27.6057H86.83V20.9454ZM93.4904 20.9454H100.151V27.6057H93.4904V20.9454ZM100.151 20.9454H106.811V27.6057H100.151V20.9454ZM106.811 20.9454H113.472V27.6057H106.811V20.9454ZM120.132 20.9454H126.792V27.6057H120.132V20.9454ZM133.453 20.9454H140.113V27.6057H133.453V20.9454ZM140.113 20.9454H146.773V27.6057H140.113V20.9454ZM146.773 20.9454H153.434V27.6057H146.773V20.9454ZM160.094 20.9454H166.755V27.6057H160.094V20.9454ZM0.245117 27.6057H6.90549V34.2661H0.245117V27.6057ZM13.5659 27.6057H20.2262V34.2661H13.5659V27.6057ZM20.2262 27.6057H26.8866V34.2661H20.2262V27.6057ZM26.8866 27.6057H33.547V34.2661H26.8866V27.6057ZM40.2074 27.6057H46.8678V34.2661H40.2074V27.6057ZM66.8489 27.6057H73.5093V34.2661H66.8489V27.6057ZM80.1696 27.6057H86.83V34.2661H80.1696V27.6057ZM106.811 27.6057H113.472V34.2661H106.811V27.6057ZM120.132 27.6057H126.792V34.2661H120.132V27.6057ZM133.453 27.6057H140.113V34.2661H133.453V27.6057ZM140.113 27.6057H146.773V34.2661H140.113V27.6057ZM146.773 27.6057H153.434V34.2661H146.773V27.6057ZM160.094 27.6057H166.755V34.2661H160.094V27.6057ZM0.245117 34.2661H6.90549V40.9265H0.245117V34.2661ZM40.2074 34.2661H46.8678V40.9265H40.2074V34.2661ZM53.5281 34.2661H60.1885V40.9265H53.5281V34.2661ZM66.8489 34.2661H73.5093V40.9265H66.8489V34.2661ZM93.4904 34.2661H100.151V40.9265H93.4904V34.2661ZM100.151 34.2661H106.811V40.9265H100.151V34.2661ZM120.132 34.2661H126.792V40.9265H120.132V34.2661ZM160.094 34.2661H166.755V40.9265H160.094V34.2661ZM0.245117 40.9265H6.90549V47.5869H0.245117V40.9265ZM6.90549 40.9265H13.5659V47.5869H6.90549V40.9265ZM13.5659 40.9265H20.2262V47.5869H13.5659V40.9265ZM20.2262 40.9265H26.8866V47.5869H20.2262V40.9265ZM26.8866 40.9265H33.547V47.5869H26.8866V40.9265ZM33.547 40.9265H40.2074V47.5869H33.547V40.9265ZM40.2074 40.9265H46.8678V47.5869H40.2074V40.9265ZM53.5281 40.9265H60.1885V47.5869H53.5281V40.9265ZM66.8489 40.9265H73.5093V47.5869H66.8489V40.9265ZM80.1696 40.9265H86.83V47.5869H80.1696V40.9265ZM93.4904 40.9265H100.151V47.5869H93.4904V40.9265ZM106.811 40.9265H113.472V47.5869H106.811V40.9265ZM120.132 40.9265H126.792V47.5869H120.132V40.9265ZM126.792 40.9265H133.453V47.5869H126.792V40.9265ZM133.453 40.9265H140.113V47.5869H133.453V40.9265ZM140.113 40.9265H146.773V47.5869H140.113V40.9265ZM146.773 40.9265H153.434V47.5869H146.773V40.9265ZM153.434 40.9265H160.094V47.5869H153.434V40.9265ZM160.094 40.9265H166.755V47.5869H160.094V40.9265ZM80.1696 47.5869H86.83V54.2473H80.1696V47.5869ZM93.4904 47.5869H100.151V54.2473H93.4904V47.5869ZM0.245117 54.2473H6.90549V60.9076H0.245117V54.2473ZM6.90549 54.2473H13.5659V60.9076H6.90549V54.2473ZM13.5659 54.2473H20.2262V60.9076H13.5659V54.2473ZM20.2262 54.2473H26.8866V60.9076H20.2262V54.2473ZM26.8866 54.2473H33.547V60.9076H26.8866V54.2473ZM40.2074 54.2473H46.8678V60.9076H40.2074V54.2473ZM46.8678 54.2473H53.5281V60.9076H46.8678V54.2473ZM53.5281 54.2473H60.1885V60.9076H53.5281V54.2473ZM60.1885 54.2473H66.8489V60.9076H60.1885V54.2473ZM66.8489 54.2473H73.5093V60.9076H66.8489V54.2473ZM80.1696 54.2473H86.83V60.9076H80.1696V54.2473ZM86.83 54.2473H93.4904V60.9076H86.83V54.2473ZM93.4904 54.2473H100.151V60.9076H93.4904V54.2473ZM100.151 54.2473H106.811V60.9076H100.151V54.2473ZM113.472 54.2473H120.132V60.9076H113.472V54.2473ZM126.792 54.2473H133.453V60.9076H126.792V54.2473ZM140.113 54.2473H146.773V60.9076H140.113V54.2473ZM153.434 54.2473H160.094V60.9076H153.434V54.2473ZM20.2262 60.9076H26.8866V67.568H20.2262V60.9076ZM26.8866 60.9076H33.547V67.568H26.8866V60.9076ZM33.547 60.9076H40.2074V67.568H33.547V60.9076ZM46.8678 60.9076H53.5281V67.568H46.8678V60.9076ZM60.1885 60.9076H66.8489V67.568H60.1885V60.9076ZM86.83 60.9076H93.4904V67.568H86.83V60.9076ZM93.4904 60.9076H100.151V67.568H93.4904V60.9076ZM106.811 60.9076H113.472V67.568H106.811V60.9076ZM113.472 60.9076H120.132V67.568H113.472V60.9076ZM126.792 60.9076H133.453V67.568H126.792V60.9076ZM140.113 60.9076H146.773V67.568H140.113V60.9076ZM26.8866 67.568H33.547V74.2284H26.8866V67.568ZM33.547 67.568H40.2074V74.2284H33.547V67.568ZM40.2074 67.568H46.8678V74.2284H40.2074V67.568ZM53.5281 67.568H60.1885V74.2284H53.5281V67.568ZM60.1885 67.568H66.8489V74.2284H60.1885V67.568ZM73.5093 67.568H80.1696V74.2284H73.5093V67.568ZM80.1696 67.568H86.83V74.2284H80.1696V67.568ZM100.151 67.568H106.811V74.2284H100.151V67.568ZM113.472 67.568H120.132V74.2284H113.472V67.568ZM120.132 67.568H126.792V74.2284H120.132V67.568ZM126.792 67.568H133.453V74.2284H126.792V67.568ZM146.773 67.568H153.434V74.2284H146.773V67.568ZM153.434 67.568H160.094V74.2284H153.434V67.568ZM160.094 67.568H166.755V74.2284H160.094V67.568ZM0.245117 74.2284H6.90549V80.8888H0.245117V74.2284ZM6.90549 74.2284H13.5659V80.8888H6.90549V74.2284ZM13.5659 74.2284H20.2262V80.8888H13.5659V74.2284ZM33.547 74.2284H40.2074V80.8888H33.547V74.2284ZM60.1885 74.2284H66.8489V80.8888H60.1885V74.2284ZM66.8489 74.2284H73.5093V80.8888H66.8489V74.2284ZM73.5093 74.2284H80.1696V80.8888H73.5093V74.2284ZM106.811 74.2284H113.472V80.8888H106.811V74.2284ZM120.132 74.2284H126.792V80.8888H120.132V74.2284ZM153.434 74.2284H160.094V80.8888H153.434V74.2284ZM6.90549 80.8888H13.5659V87.5491H6.90549V80.8888ZM26.8866 80.8888H33.547V87.5491H26.8866V80.8888ZM40.2074 80.8888H46.8678V87.5491H40.2074V80.8888ZM46.8678 80.8888H53.5281V87.5491H46.8678V80.8888ZM60.1885 80.8888H66.8489V87.5491H60.1885V80.8888ZM73.5093 80.8888H80.1696V87.5491H73.5093V80.8888ZM80.1696 80.8888H86.83V87.5491H80.1696V80.8888ZM86.83 80.8888H93.4904V87.5491H86.83V80.8888ZM93.4904 80.8888H100.151V87.5491H93.4904V80.8888ZM120.132 80.8888H126.792V87.5491H120.132V80.8888ZM133.453 80.8888H140.113V87.5491H133.453V80.8888ZM140.113 80.8888H146.773V87.5491H140.113V80.8888ZM146.773 80.8888H153.434V87.5491H146.773V80.8888ZM153.434 80.8888H160.094V87.5491H153.434V80.8888ZM0.245117 87.5491H6.90549V94.2095H0.245117V87.5491ZM6.90549 87.5491H13.5659V94.2095H6.90549V87.5491ZM26.8866 87.5491H33.547V94.2095H26.8866V87.5491ZM46.8678 87.5491H53.5281V94.2095H46.8678V87.5491ZM60.1885 87.5491H66.8489V94.2095H60.1885V87.5491ZM66.8489 87.5491H73.5093V94.2095H66.8489V87.5491ZM80.1696 87.5491H86.83V94.2095H80.1696V87.5491ZM93.4904 87.5491H100.151V94.2095H93.4904V87.5491ZM126.792 87.5491H133.453V94.2095H126.792V87.5491ZM140.113 87.5491H146.773V94.2095H140.113V87.5491ZM146.773 87.5491H153.434V94.2095H146.773V87.5491ZM0.245117 94.2095H6.90549V100.87H0.245117V94.2095ZM13.5659 94.2095H20.2262V100.87H13.5659V94.2095ZM33.547 94.2095H40.2074V100.87H33.547V94.2095ZM40.2074 94.2095H46.8678V100.87H40.2074V94.2095ZM46.8678 94.2095H53.5281V100.87H46.8678V94.2095ZM53.5281 94.2095H60.1885V100.87H53.5281V94.2095ZM60.1885 94.2095H66.8489V100.87H60.1885V94.2095ZM66.8489 94.2095H73.5093V100.87H66.8489V94.2095ZM80.1696 94.2095H86.83V100.87H80.1696V94.2095ZM100.151 94.2095H106.811V100.87H100.151V94.2095ZM106.811 94.2095H113.472V100.87H106.811V94.2095ZM113.472 94.2095H120.132V100.87H113.472V94.2095ZM126.792 94.2095H133.453V100.87H126.792V94.2095ZM146.773 94.2095H153.434V100.87H146.773V94.2095ZM153.434 94.2095H160.094V100.87H153.434V94.2095ZM160.094 94.2095H166.755V100.87H160.094V94.2095ZM0.245117 100.87H6.90549V107.53H0.245117V100.87ZM26.8866 100.87H33.547V107.53H26.8866V100.87ZM53.5281 100.87H60.1885V107.53H53.5281V100.87ZM60.1885 100.87H66.8489V107.53H60.1885V100.87ZM66.8489 100.87H73.5093V107.53H66.8489V100.87ZM73.5093 100.87H80.1696V107.53H73.5093V100.87ZM80.1696 100.87H86.83V107.53H80.1696V100.87ZM100.151 100.87H106.811V107.53H100.151V100.87ZM106.811 100.87H113.472V107.53H106.811V100.87ZM126.792 100.87H133.453V107.53H126.792V100.87ZM0.245117 107.53H6.90549V114.191H0.245117V107.53ZM26.8866 107.53H33.547V114.191H26.8866V107.53ZM33.547 107.53H40.2074V114.191H33.547V107.53ZM40.2074 107.53H46.8678V114.191H40.2074V107.53ZM46.8678 107.53H53.5281V114.191H46.8678V107.53ZM66.8489 107.53H73.5093V114.191H66.8489V107.53ZM86.83 107.53H93.4904V114.191H86.83V107.53ZM93.4904 107.53H100.151V114.191H93.4904V107.53ZM106.811 107.53H113.472V114.191H106.811V107.53ZM113.472 107.53H120.132V114.191H113.472V107.53ZM120.132 107.53H126.792V114.191H120.132V107.53ZM126.792 107.53H133.453V114.191H126.792V107.53ZM133.453 107.53H140.113V114.191H133.453V107.53ZM140.113 107.53H146.773V114.191H140.113V107.53ZM146.773 107.53H153.434V114.191H146.773V107.53ZM160.094 107.53H166.755V114.191H160.094V107.53ZM53.5281 114.191H60.1885V120.851H53.5281V114.191ZM60.1885 114.191H66.8489V120.851H60.1885V114.191ZM66.8489 114.191H73.5093V120.851H66.8489V114.191ZM73.5093 114.191H80.1696V120.851H73.5093V114.191ZM86.83 114.191H93.4904V120.851H86.83V114.191ZM100.151 114.191H106.811V120.851H100.151V114.191ZM106.811 114.191H113.472V120.851H106.811V114.191ZM133.453 114.191H140.113V120.851H133.453V114.191ZM153.434 114.191H160.094V120.851H153.434V114.191ZM0.245117 120.851H6.90549V127.511H0.245117V120.851ZM6.90549 120.851H13.5659V127.511H6.90549V120.851ZM13.5659 120.851H20.2262V127.511H13.5659V120.851ZM20.2262 120.851H26.8866V127.511H20.2262V120.851ZM26.8866 120.851H33.547V127.511H26.8866V120.851ZM33.547 120.851H40.2074V127.511H33.547V120.851ZM40.2074 120.851H46.8678V127.511H40.2074V120.851ZM53.5281 120.851H60.1885V127.511H53.5281V120.851ZM60.1885 120.851H66.8489V127.511H60.1885V120.851ZM93.4904 120.851H100.151V127.511H93.4904V120.851ZM106.811 120.851H113.472V127.511H106.811V120.851ZM120.132 120.851H126.792V127.511H120.132V120.851ZM133.453 120.851H140.113V127.511H133.453V120.851ZM153.434 120.851H160.094V127.511H153.434V120.851ZM160.094 120.851H166.755V127.511H160.094V120.851ZM0.245117 127.511H6.90549V134.172H0.245117V127.511ZM40.2074 127.511H46.8678V134.172H40.2074V127.511ZM60.1885 127.511H66.8489V134.172H60.1885V127.511ZM106.811 127.511H113.472V134.172H106.811V127.511ZM133.453 127.511H140.113V134.172H133.453V127.511ZM0.245117 134.172H6.90549V140.832H0.245117V134.172ZM13.5659 134.172H20.2262V140.832H13.5659V134.172ZM20.2262 134.172H26.8866V140.832H20.2262V134.172ZM26.8866 134.172H33.547V140.832H26.8866V134.172ZM40.2074 134.172H46.8678V140.832H40.2074V134.172ZM53.5281 134.172H60.1885V140.832H53.5281V134.172ZM66.8489 134.172H73.5093V140.832H66.8489V134.172ZM80.1696 134.172H86.83V140.832H80.1696V134.172ZM86.83 134.172H93.4904V140.832H86.83V134.172ZM93.4904 134.172H100.151V140.832H93.4904V134.172ZM100.151 134.172H106.811V140.832H100.151V134.172ZM106.811 134.172H113.472V140.832H106.811V134.172ZM113.472 134.172H120.132V140.832H113.472V134.172ZM120.132 134.172H126.792V140.832H120.132V134.172ZM126.792 134.172H133.453V140.832H126.792V134.172ZM133.453 134.172H140.113V140.832H133.453V134.172ZM146.773 134.172H153.434V140.832H146.773V134.172ZM0.245117 140.832H6.90549V147.493H0.245117V140.832ZM13.5659 140.832H20.2262V147.493H13.5659V140.832ZM20.2262 140.832H26.8866V147.493H20.2262V140.832ZM26.8866 140.832H33.547V147.493H26.8866V140.832ZM40.2074 140.832H46.8678V147.493H40.2074V140.832ZM53.5281 140.832H60.1885V147.493H53.5281V140.832ZM73.5093 140.832H80.1696V147.493H73.5093V140.832ZM86.83 140.832H93.4904V147.493H86.83V140.832ZM106.811 140.832H113.472V147.493H106.811V140.832ZM113.472 140.832H120.132V147.493H113.472V140.832ZM120.132 140.832H126.792V147.493H120.132V140.832ZM133.453 140.832H140.113V147.493H133.453V140.832ZM153.434 140.832H160.094V147.493H153.434V140.832ZM160.094 140.832H166.755V147.493H160.094V140.832ZM0.245117 147.493H6.90549V154.153H0.245117V147.493ZM13.5659 147.493H20.2262V154.153H13.5659V147.493ZM20.2262 147.493H26.8866V154.153H20.2262V147.493ZM26.8866 147.493H33.547V154.153H26.8866V147.493ZM40.2074 147.493H46.8678V154.153H40.2074V147.493ZM53.5281 147.493H60.1885V154.153H53.5281V147.493ZM60.1885 147.493H66.8489V154.153H60.1885V147.493ZM80.1696 147.493H86.83V154.153H80.1696V147.493ZM86.83 147.493H93.4904V154.153H86.83V147.493ZM93.4904 147.493H100.151V154.153H93.4904V147.493ZM106.811 147.493H113.472V154.153H106.811V147.493ZM126.792 147.493H133.453V154.153H126.792V147.493ZM140.113 147.493H146.773V154.153H140.113V147.493ZM160.094 147.493H166.755V154.153H160.094V147.493ZM0.245117 154.153H6.90549V160.813H0.245117V154.153ZM40.2074 154.153H46.8678V160.813H40.2074V154.153ZM53.5281 154.153H60.1885V160.813H53.5281V154.153ZM60.1885 154.153H66.8489V160.813H60.1885V154.153ZM73.5093 154.153H80.1696V160.813H73.5093V154.153ZM80.1696 154.153H86.83V160.813H80.1696V154.153ZM93.4904 154.153H100.151V160.813H93.4904V154.153ZM100.151 154.153H106.811V160.813H100.151V154.153ZM106.811 154.153H113.472V160.813H106.811V154.153ZM120.132 154.153H126.792V160.813H120.132V154.153ZM126.792 154.153H133.453V160.813H126.792V154.153ZM133.453 154.153H140.113V160.813H133.453V154.153ZM160.094 154.153H166.755V160.813H160.094V154.153ZM0.245117 160.813H6.90549V167.474H0.245117V160.813ZM6.90549 160.813H13.5659V167.474H6.90549V160.813ZM13.5659 160.813H20.2262V167.474H13.5659V160.813ZM20.2262 160.813H26.8866V167.474H20.2262V160.813ZM26.8866 160.813H33.547V167.474H26.8866V160.813ZM33.547 160.813H40.2074V167.474H33.547V160.813ZM40.2074 160.813H46.8678V167.474H40.2074V160.813ZM53.5281 160.813H60.1885V167.474H53.5281V160.813ZM66.8489 160.813H73.5093V167.474H66.8489V160.813ZM86.83 160.813H93.4904V167.474H86.83V160.813ZM93.4904 160.813H100.151V167.474H93.4904V160.813ZM113.472 160.813H120.132V167.474H113.472V160.813ZM146.773 160.813H153.434V167.474H146.773V160.813ZM153.434 160.813H160.094V167.474H153.434V160.813ZM160.094 160.813H166.755V167.474H160.094V160.813Z" fill="#76797B"/>
</svg>
